<?xml version="1.0" encoding="UTF-8" standalone="no"?>
<svg
   width="800"
   height="800"
   viewBox="0 0 24 24"
   fill="none"
   version="1.1"
   id="svg1"
   xml:space="preserve"
   sodipodi:docname="acoustic_bug.svg"
   inkscape:version="1.2.2 (b0a8486541, 2022-12-01)"
   xmlns:inkscape="http://www.inkscape.org/namespaces/inkscape"
   xmlns:sodipodi="http://sodipodi.sourceforge.net/DTD/sodipodi-0.dtd"
   xmlns="http://www.w3.org/2000/svg"
   xmlns:svg="http://www.w3.org/2000/svg"><sodipodi:namedview
     id="namedview241"
     pagecolor="#505050"
     bordercolor="#eeeeee"
     borderopacity="1"
     inkscape:showpageshadow="0"
     inkscape:pageopacity="0"
     inkscape:pagecheckerboard="0"
     inkscape:deskcolor="#505050"
     showgrid="false"
     inkscape:zoom="0.56616565"
     inkscape:cx="19.428943"
     inkscape:cy="544.0104"
     inkscape:window-width="1920"
     inkscape:window-height="1048"
     inkscape:window-x="0"
     inkscape:window-y="1080"
     inkscape:window-maximized="1"
     inkscape:current-layer="svg1" /><defs
     id="defs1" /><ellipse
     style="fill:#ff0000;stroke-width:0.143206"
     id="path734"
     cx="-8.7137089"
     cy="-17.395821"
     rx="8.5937328"
     ry="9.0283575"
     transform="matrix(-0.96944404,0.24531258,-0.28409443,-0.95879631,0,0)" /><ellipse
     style="fill:#000000;stroke-width:0.249097"
     id="path970"
     cx="14.990222"
     cy="-19.43119"
     rx="2.2871463"
     ry="1.568329"
     transform="rotate(90.248088)" /><ellipse
     style="fill:#000000;stroke-width:0.249097"
     id="ellipse1232"
     cx="17.512554"
     cy="-14.013118"
     rx="2.2871463"
     ry="1.568329"
     transform="matrix(0.92116498,0.38917231,0.38917231,-0.92116498,0,0)" /><path
     style="display:inline;fill:#999999;fill-opacity:1;stroke:#ff0000;stroke-width:0.0307445;stroke-opacity:0"
     d="M 9.1422239,16.394936 C 9.0803107,16.378463 8.9741711,16.317468 8.9063728,16.259425 8.6638739,16.051878 8.6836095,16.776836 8.6929982,8.4222728 l 0.00842,-7.47095147 0.073982,-0.11902101 C 8.8894047,0.64889287 9.0903143,0.53626909 9.3034741,0.53626909 c 0.1466819,0 0.198803,0.0161532 0.3223451,0.0999203 0.085103,0.0576985 0.1742571,0.15188717 0.2110019,0.22289904 l 0.063635,0.1229792 0.0079,7.43622967 c 0.00552,5.2021947 -0.00198,7.4728837 -0.024963,7.5582297 -0.04656,0.172888 -0.2552802,0.373246 -0.4363471,0.41884 -0.1603449,0.04039 -0.1514491,0.04039 -0.3047607,-4.39e-4 z"
     id="path3" /><path
     style="display:inline;fill:#999999;fill-opacity:1;stroke:#ff0000;stroke-width:0.0307445;stroke-opacity:0"
     d="M 5.2887389,14.24335 C 5.1878303,14.187682 5.055852,14.054652 5.0051683,13.957558 4.9629465,13.876666 4.957016,13.28337 4.9517678,8.6137982 4.9485373,5.7247806 4.9575443,3.2755601 4.9718571,3.1710866 5.0149477,2.8559949 5.2303993,2.6576549 5.5295855,2.6576549 c 0.2797283,0 0.524415,0.1946779 0.5579046,0.4438806 0.00922,0.068693 0.020089,2.5316596 0.024066,5.4732595 l 0.00731,5.348367 -0.1228651,0.135021 c -0.067576,0.07426 -0.1602777,0.154338 -0.2059998,0.178001 -0.09847,0.05094 -0.413781,0.05543 -0.5012392,0.0073 z"
     id="path4" /><path
     style="display:inline;fill:#999999;fill-opacity:1;stroke:#ff0000;stroke-width:0.0307445;stroke-opacity:0"
     d="M 1.4980371,12.155556 C 1.3524106,12.081566 1.242179,11.952046 1.1885733,11.791922 1.1632932,11.716428 1.153583,10.789588 1.153583,8.4544772 V 5.2215406 L 1.233416,5.0613403 C 1.3709155,4.785398 1.6888935,4.6553267 1.96661,4.7613864 c 0.1642876,0.062753 0.3392312,0.2477137 0.3856513,0.4077428 0.024154,0.083234 0.03135,1.0575966 0.024875,3.3607629 -0.00907,3.2210519 -0.00959,3.2444189 -0.073357,3.3665419 -0.1475074,0.28244 -0.5225136,0.403038 -0.8057317,0.259124 z"
     id="path5" /><path
     style="display:inline;fill:#999999;fill-opacity:1;stroke:#ff0000;stroke-width:0.0307445;stroke-opacity:0"
     d="m 12.82118,14.267856 c -0.116797,-0.05441 -0.278469,-0.223965 -0.320934,-0.336594 -0.02256,-0.05984 -0.03263,-1.747335 -0.03263,-5.4660864 0,-5.2273589 0.0017,-5.3827663 0.0585,-5.493607 0.234309,-0.4568951 0.847887,-0.4566136 1.0823,4.955e-4 0.05725,0.1116837 0.05856,0.2509901 0.05081,5.5388723 l -0.0077,5.4243116 -0.09401,0.11615 c -0.156418,0.193255 -0.239546,0.239221 -0.452028,0.249824 -0.118975,0.0058 -0.226848,-0.0066 -0.284056,-0.03338 z"
     id="path6" /><path
     style="display:inline;fill:#999999;fill-opacity:1;stroke:#ff0000;stroke-width:0.0307445;stroke-opacity:0"
     d="m 16.562919,12.155556 c -0.14561,-0.07398 -0.255861,-0.203503 -0.309463,-0.363634 -0.02514,-0.0755 -0.03498,-1.002334 -0.03498,-3.3374448 V 5.2215406 l 0.07982,-0.1602003 c 0.137502,-0.2759405 0.455477,-0.4060119 0.733193,-0.2999522 0.164267,0.062753 0.339231,0.2477139 0.38565,0.4077428 0.02427,0.083234 0.03134,1.0575968 0.02483,3.3607629 -0.0089,3.2210502 -0.0096,3.2444192 -0.07336,3.3665432 -0.147489,0.282439 -0.522513,0.403037 -0.805731,0.259122 z"
     id="path7" /></svg>
